 <svg version="1.0" xmlns="http://www.w3.org/2000/svg"  width="450.000000pt" height="253.000000pt" viewBox="0 0 450.000000 253.000000"  preserveAspectRatio="xMidYMid meet">  <g transform="translate(0.000000,253.000000) scale(0.050000,-0.050000)" fill="#000000" stroke="none"> <path d="M0 2530 c0 -2297 3 -2530 32 -2530 28 0 30 82 15 865 -8 476 -15 1614 -13 2530 1 974 -6 1665 -16 1665 -11 0 -18 -1046 -18 -2530z"/> <path d="M4670 4670 c-11 -3 -42 -11 -70 -18 -125 -27 -404 -250 -569 -453 -253 -312 -371 -665 -451 -1349 -21 -181 -86 -457 -141 -603 -12 -31 -26 -115 -32 -186 -5 -71 -13 -135 -18 -143 -16 -25 -104 -652 -101 -717 2 -44 -16 -56 -173 -113 -97 -35 -212 -88 -255 -118 -123 -85 -355 -26 -515 131 -36 35 -65 55 -65 44 0 -11 13 -31 30 -45 17 -14 30 -40 30 -57 1 -45 170 -119 308 -135 138 -17 141 -3 -39 -192 -101 -106 -173 -203 -217 -294 -35 -74 -84 -163 -108 -197 -24 -34 -44 -69 -44 -78 -1 -9 -18 -39 -40 -67 -57 -72 -51 -80 59 -80 81 0 101 7 111 40 7 22 21 40 31 40 10 0 13 14 6 30 -8 22 -2 27 21 18 23 -9 32 -1 32 29 0 90 98 303 168 364 39 34 76 80 83 102 8 24 24 36 41 29 16 -6 47 7 68 28 22 22 35 40 29 40 -19 0 39 52 85 77 57 30 66 29 66 -7 0 -19 19 -30 50 -30 53 0 67 29 25 48 -20 10 -19 15 1 24 14 7 44 31 65 54 28 30 39 33 39 13 0 -16 26 -54 58 -84 l58 -54 9 49 c5 28 2 50 -8 50 -10 0 -12 22 -5 50 14 55 -41 68 -136 32 -75 -28 -236 -45 -236 -25 0 11 47 30 105 44 246 58 307 106 297 239 -2 39 5 93 16 120 17 43 20 44 21 10 6 -189 50 -191 63 -2 8 108 22 203 33 210 31 19 50 90 95 352 40 234 73 351 124 434 33 53 37 71 16 63 -21 -8 -30 2 -30 31 0 23 11 40 24 37 14 -3 31 37 42 102 25 150 44 110 45 -98 2 -166 -1 -177 -38 -173 -36 4 -43 -16 -67 -176 -87 -574 -127 -772 -120 -595 2 58 -3 105 -11 105 -64 0 -14 -708 61 -860 l34 -70 6 68 c4 37 -1 73 -10 80 -10 7 -20 44 -22 82 -7 133 -3 509 6 549 16 71 29 153 72 451 50 341 78 417 66 179 -6 -117 -2 -160 11 -139 11 17 21 50 21 74 0 24 7 48 15 53 8 5 12 -35 8 -89 -4 -56 3 -111 16 -127 17 -20 16 -30 -3 -37 -14 -6 -16 -12 -4 -12 13 -1 19 -43 16 -107 -33 -673 -13 -1105 53 -1110 42 -3 50 15 21 46 -57 58 -75 499 -33 809 l26 190 2 -204 c3 -180 24 -272 47 -203 22 64 54 -17 54 -133 0 -72 5 -139 12 -150 22 -36 53 -21 40 19 -7 22 -3 56 7 76 15 27 8 67 -26 152 -26 63 -52 166 -58 229 -15 154 -35 249 -58 279 -11 13 -15 37 -9 51 6 15 -8 121 -30 236 -41 210 -54 674 -19 697 34 23 44 92 31 209 -11 92 -18 112 -31 82 -14 -33 -16 -30 -10 15 5 39 -1 55 -22 55 -24 0 -28 -18 -20 -80 6 -44 3 -80 -7 -80 -30 0 -33 337 -3 359 8 6 17 58 19 116 3 57 19 133 38 168 l33 64 25 -46 24 -46 10 52 c6 28 0 56 -12 62 -15 8 -15 14 2 22 13 7 19 23 14 38 -6 14 4 41 22 58 18 18 28 33 23 33 -12 0 67 185 85 200 7 6 37 48 67 95 31 47 64 85 75 85 10 0 15 11 10 25 -5 14 21 59 59 101 37 41 71 82 75 90 11 29 201 164 229 164 48 0 29 -32 -63 -109 -70 -58 -90 -89 -90 -135 l0 -59 121 109 c67 61 141 115 165 121 38 9 36 3 -16 -43 -107 -95 -212 -241 -220 -306 -4 -35 -17 -73 -29 -85 -37 -37 -23 -61 16 -26 20 18 41 28 48 22 18 -19 39 68 23 94 -9 14 -5 18 8 9 13 -8 38 17 61 62 71 138 204 264 277 262 36 -1 77 8 92 21 57 47 251 -70 253 -152 1 -14 10 -25 21 -25 11 0 20 -16 20 -37 0 -20 35 -65 78 -99 70 -56 150 -219 164 -334 2 -11 19 -41 39 -66 20 -26 32 -58 27 -73 -11 -28 47 -213 163 -525 79 -210 78 -206 42 -206 -80 0 -200 231 -141 274 19 14 31 28 27 32 -5 3 -34 22 -64 41 -30 18 -55 48 -55 65 0 18 -12 60 -28 95 -15 35 -70 196 -121 360 -52 163 -111 313 -133 335 -21 21 -38 50 -38 65 0 15 -18 43 -39 62 -41 38 -33 -41 12 -113 29 -48 304 -885 294 -896 -6 -5 -59 44 -118 110 -60 66 -108 113 -109 104 0 -28 56 -126 89 -153 43 -35 39 -50 -19 -81 -51 -27 -71 -71 -25 -54 14 5 41 0 62 -10 26 -14 47 -10 74 15 51 46 89 26 138 -69 51 -100 53 -130 6 -105 -36 19 -217 2 -259 -23 -17 -11 -35 20 -58 100 -19 64 -41 129 -49 146 -30 59 -102 341 -93 365 5 14 0 43 -11 64 -12 21 -23 84 -27 140 -3 56 -12 171 -20 256 -12 136 -10 155 19 155 20 0 33 16 33 40 0 22 -9 40 -20 40 -11 0 -20 -13 -20 -29 0 -17 -12 -25 -27 -19 -29 11 -153 -156 -153 -205 0 -52 32 -26 58 45 36 99 57 65 72 -112 18 -214 84 -580 120 -666 16 -40 30 -99 30 -132 0 -33 9 -65 20 -72 11 -7 20 -38 20 -70 0 -62 30 -97 47 -55 5 14 11 0 11 -31 l2 -55 240 4 240 4 60 -59 c259 -249 56 -987 -366 -1330 -57 -47 -113 -96 -124 -109 -11 -12 -27 -24 -35 -24 -9 -1 -23 -6 -30 -10 -8 -5 -4 -6 10 -2 36 8 31 -20 -15 -78 -22 -28 -40 -60 -40 -71 0 -10 -22 -70 -50 -131 -62 -142 -69 -390 -11 -442 38 -34 98 46 69 93 -7 11 -2 27 11 36 14 8 48 81 76 162 28 82 81 195 117 253 37 57 94 156 126 220 64 125 127 215 115 165 -3 -16 -3 -23 2 -15 5 8 18 9 30 2 12 -7 15 -4 8 8 -12 20 8 62 153 326 39 72 90 197 112 278 45 160 69 207 51 100 -47 -292 -73 -388 -111 -419 -23 -18 -141 -367 -180 -530 -70 -299 -68 -283 -35 -255 17 13 37 18 46 10 8 -8 13 -6 10 5 -8 40 1 96 14 84 17 -17 70 84 57 106 -6 9 4 31 22 49 21 21 39 93 51 197 10 90 23 185 28 210 13 58 61 46 53 -13 -4 -24 3 -43 15 -43 36 0 23 90 -18 119 -36 26 -36 30 -5 53 30 22 37 17 56 -38 27 -81 37 20 78 849 7 144 2 207 -19 249 -17 32 -22 67 -13 84 9 17 5 69 -11 120 -32 108 -35 164 -6 164 12 0 17 -7 12 -16 -6 -9 -2 -29 8 -45 14 -22 18 -16 19 25 0 33 -17 66 -43 84 -24 17 -46 51 -48 77 -9 83 -218 549 -225 502 -4 -24 12 -83 35 -130 36 -73 38 -94 18 -133 -24 -45 6 -97 43 -74 6 4 13 -8 15 -26 2 -19 13 -79 25 -134 23 -105 25 -112 50 -240 8 -44 21 -89 28 -100 6 -11 13 -47 13 -80 1 -33 8 -114 15 -180 l14 -120 -27 80 c-15 44 -47 148 -71 230 -24 83 -56 182 -71 220 -45 116 -57 149 -60 170 -8 69 -37 150 -53 150 -10 0 -18 16 -18 35 0 19 -18 91 -40 160 -64 206 -139 324 -114 180 13 -71 10 -65 -66 125 -51 127 -156 300 -182 300 -10 0 -18 11 -18 23 0 13 -15 40 -33 60 -26 29 -27 37 -5 36 36 -1 118 -69 118 -98 0 -13 9 -18 20 -11 11 7 20 2 20 -10 0 -12 8 -18 17 -12 10 6 34 -7 54 -29 20 -22 48 -36 63 -30 15 5 42 -6 61 -25 59 -60 145 -180 145 -203 0 -11 9 -21 20 -21 10 0 25 -22 32 -49 6 -27 25 -60 41 -73 37 -31 98 -166 147 -324 43 -138 105 -246 89 -154 -4 28 4 14 20 -30 15 -44 29 -113 29 -154 1 -40 10 -78 19 -84 10 -6 19 -96 20 -200 1 -104 16 -258 34 -343 17 -84 29 -177 26 -206 -3 -29 2 -66 12 -81 12 -20 10 -24 -7 -13 -36 22 -19 -298 27 -499 35 -157 35 -448 -1 -672 -9 -56 -5 -71 20 -71 33 0 82 123 103 261 7 42 17 96 22 120 23 98 -8 539 -63 882 -33 208 -63 471 -80 700 -29 379 -115 731 -235 955 -222 419 -844 794 -1056 637 -53 -39 -63 -40 -104 -15 -44 28 -206 57 -245 43z m1313 -731 c36 -66 104 -233 118 -289 8 -33 21 -76 29 -95 22 -54 -21 -41 -46 13 -12 27 -28 81 -35 121 -8 40 -39 123 -70 183 -48 93 -44 154 4 67z m-316 -209 l12 -80 -28 70 c-32 79 -42 171 -13 120 9 -16 22 -66 29 -110z m4 -173 c9 -40 19 -54 29 -38 10 16 19 18 28 5 7 -11 1 -24 -12 -29 -18 -6 -18 -23 3 -72 14 -35 22 -69 16 -75 -11 -10 -38 56 -86 208 -15 47 -20 81 -10 74 10 -6 24 -39 32 -73z m-2145 -1542 c-16 -104 -45 -138 -45 -54 -1 39 10 82 23 95 33 33 34 32 22 -41z m-35 -183 c-7 -23 -22 -91 -33 -152 -26 -132 -56 -196 -57 -120 -1 28 8 82 20 120 12 39 22 98 22 132 1 40 11 61 30 61 21 0 26 -13 18 -41z"/> <path d="M4830 4325 c-88 -92 -106 -136 -38 -92 l54 36 -11 -50 c-7 -27 -43 -154 -81 -283 -39 -129 -80 -321 -91 -427 -23 -209 -29 -226 -68 -193 -14 12 -73 28 -131 35 -125 17 -130 -16 51 389 178 401 173 386 125 360 -22 -12 -40 -30 -40 -41 0 -11 -21 -30 -47 -41 -61 -28 -220 -364 -254 -536 -14 -68 -34 -129 -45 -136 -13 -8 -16 10 -7 51 7 35 19 91 26 126 9 43 6 59 -8 50 -12 -7 -26 -2 -32 12 -6 14 -10 -2 -7 -35 3 -39 -5 -58 -21 -55 -15 3 -25 -15 -25 -44 0 -27 -8 -70 -18 -95 -10 -25 -34 -104 -54 -176 -20 -71 -41 -134 -47 -140 -13 -12 -56 -123 -83 -213 -26 -88 -74 -447 -60 -447 7 0 11 -38 10 -85 -3 -95 8 -140 32 -125 44 27 135 -308 110 -407 -16 -66 31 -345 65 -387 18 -20 23 -51 15 -80 -8 -30 -6 -37 5 -20 41 58 105 -166 105 -364 0 -61 7 -73 35 -67 20 4 79 -29 140 -80 58 -49 105 -79 105 -67 0 20 -133 160 -209 220 -37 29 33 94 73 69 21 -13 43 87 27 126 -7 19 -4 39 6 45 11 7 8 68 -8 152 -35 176 -35 190 -3 190 48 0 247 -212 261 -278 15 -78 77 -88 69 -11 -6 49 -3 50 144 57 95 3 183 20 240 46 l89 40 -98 -5 c-61 -2 -109 7 -126 23 -27 27 -85 18 -85 -14 0 -33 -129 -18 -179 20 -27 21 -61 33 -75 28 -140 -54 -580 516 -614 794 -44 359 -38 418 60 613 27 52 48 110 48 130 0 21 14 37 30 37 17 0 30 -10 30 -23 0 -14 16 -9 38 11 32 29 51 31 117 13 44 -11 130 -22 193 -24 69 -1 119 -12 127 -28 8 -15 15 115 15 287 1 456 158 1084 272 1084 10 0 18 8 18 19 0 10 -22 14 -49 9 -38 -7 -47 -2 -38 22 18 48 -27 35 -83 -25z m-207 -1077 c9 -5 17 -50 17 -99 l0 -89 -85 15 c-47 8 -128 14 -180 13 -103 -2 -129 52 -73 156 22 40 258 43 321 4z m-399 -153 c-5 -20 -18 -41 -30 -48 -13 -9 -16 4 -7 35 7 26 13 66 14 88 2 40 2 40 17 0 9 -22 12 -55 6 -75z"/> <path d="M5612 4227 c8 -31 23 -63 35 -70 11 -8 23 -35 27 -60 4 -26 16 -50 27 -54 10 -3 19 -18 19 -33 0 -36 55 -53 67 -20 6 15 -2 38 -18 51 -16 13 -29 34 -29 47 0 12 -22 47 -50 76 -27 30 -50 63 -50 74 0 11 -9 25 -21 32 -13 9 -16 -6 -7 -43z"/> <path d="M4345 4195 c-40 -27 -74 -74 -88 -119 -13 -41 -29 -71 -36 -67 -7 5 -14 -9 -16 -31 -1 -21 -23 -68 -49 -103 -25 -36 -42 -65 -37 -65 5 0 -6 -22 -24 -50 -42 -65 -150 -431 -167 -566 -19 -150 26 -98 55 64 12 71 34 130 49 136 16 6 28 35 28 64 0 30 9 63 20 74 27 27 99 242 85 256 -6 7 -2 12 10 12 26 0 107 134 111 183 1 19 6 31 11 26 15 -14 59 59 90 148 15 46 27 83 25 83 -1 0 -32 -20 -67 -45z"/> <path d="M3325 3365 c-90 -96 -180 -196 -200 -221 -19 -25 -55 -70 -80 -100 -25 -30 -45 -64 -45 -77 0 -13 -9 -27 -21 -31 -11 -3 -22 -27 -24 -51 -2 -25 -10 -45 -18 -45 -22 0 -120 -219 -108 -239 6 -10 4 -21 -4 -24 -8 -4 -36 -36 -61 -72 l-45 -65 48 0 c39 0 48 10 48 53 0 30 16 65 35 80 22 16 31 40 24 67 -7 26 -2 39 11 35 26 -9 120 160 104 187 -6 10 3 18 21 18 18 0 27 9 20 20 -7 11 2 26 19 32 17 7 31 25 31 41 0 16 10 23 21 16 12 -7 20 -1 18 14 -6 49 25 117 54 117 15 0 37 23 47 51 11 27 32 55 48 61 16 6 34 24 40 41 8 19 3 24 -13 15 -20 -11 -20 -8 -1 12 14 15 41 28 60 29 20 2 38 9 41 17 15 49 76 148 103 168 18 14 23 25 12 25 -12 1 -95 -78 -185 -174z"/> <path d="M4798 3025 c-1 -8 -4 -46 -6 -85 -2 -38 -11 -86 -20 -105 -12 -26 -7 -35 17 -35 18 0 28 8 22 18 -6 10 3 23 19 29 16 6 29 5 27 -3 -5 -39 6 -57 36 -57 28 0 27 3 -4 26 -20 15 -29 27 -19 27 10 0 8 10 -4 22 -13 13 -18 35 -12 50 14 38 -10 128 -34 128 -11 0 -21 -7 -22 -15z"/> <path d="M5320 2862 c0 -20 70 -42 130 -41 35 0 34 4 -10 29 -57 32 -120 39 -120 12z"/> <path d="M6171 2782 c-8 -23 -9 -49 -3 -59 6 -9 12 -105 14 -213 1 -108 10 -183 19 -169 15 25 6 458 -10 474 -4 5 -13 -11 -20 -33z"/> <path d="M4865 2727 c-14 -6 -19 -20 -12 -32 9 -14 1 -17 -20 -9 -29 11 -42 -5 -36 -49 1 -7 -20 -18 -46 -25 -26 -7 -68 -46 -93 -87 -25 -41 -73 -100 -107 -129 l-61 -55 70 12 c39 7 73 15 77 19 4 3 28 -15 53 -40 49 -49 313 -76 339 -34 6 11 42 14 80 8 50 -8 88 1 141 34 40 24 74 41 77 37 2 -4 18 -34 34 -66 52 -106 177 -217 226 -201 24 8 67 18 97 24 88 17 110 60 37 76 -33 7 -69 7 -81 0 -11 -7 -20 -3 -20 9 0 12 -25 33 -55 46 -56 25 -119 93 -110 120 3 8 -4 15 -15 15 -10 0 -47 31 -81 68 -34 37 -79 73 -100 78 -41 11 -54 -15 -19 -36 26 -16 26 -124 0 -140 -11 -7 -51 -1 -89 12 -51 19 -75 19 -95 3 -20 -16 -50 -17 -107 -2 -43 11 -98 25 -122 30 -23 6 -48 1 -56 -11 -31 -50 -74 -23 -67 43 5 55 13 64 53 60 60 -7 131 80 138 169 3 37 3 65 0 64 -3 0 -16 -6 -30 -11z"/> <path d="M2727 2375 c-8 -25 -17 -52 -19 -60 -1 -8 -5 -17 -7 -20 -5 -7 -14 -43 -39 -169 -21 -108 1 -226 42 -226 14 0 14 8 1 25 -11 14 -17 57 -12 95 5 39 8 93 8 120 -1 28 7 68 17 90 39 82 59 169 42 180 -9 6 -24 -10 -33 -35z"/> <path d="M4165 2220 c35 -57 135 -56 120 2 -7 28 -15 34 -25 18 -11 -18 -19 -18 -29 -2 -7 12 -31 22 -52 22 -34 0 -36 -5 -14 -40z"/> <path d="M4440 2081 c0 -40 12 -67 35 -77 19 -8 89 -50 155 -93 120 -80 390 -114 560 -71 26 7 38 1 35 -16 -4 -15 3 -21 15 -14 11 7 20 21 20 33 0 42 141 153 181 143 31 -8 39 -1 39 37 -1 88 -27 105 -101 67 -55 -29 -77 -31 -138 -10 -40 13 -95 23 -122 22 -140 -4 -226 2 -269 18 -27 10 -73 11 -107 1 -33 -10 -63 -15 -66 -12 -4 3 -59 12 -122 20 l-115 14 0 -62z m280 -44 c17 0 44 -5 60 -11 58 -21 132 -27 318 -26 180 2 186 1 151 -34 -20 -20 -41 -37 -48 -38 -6 -1 -24 -7 -41 -14 -123 -49 -374 -56 -402 -10 -8 12 -23 15 -34 8 -12 -7 -37 14 -57 48 -20 33 -43 60 -51 60 -9 0 -16 10 -16 22 0 14 17 17 45 9 25 -8 59 -14 75 -14z"/> <path d="M4560 1866 c0 -18 32 -62 70 -97 39 -36 70 -60 70 -54 0 5 22 -5 50 -23 69 -45 273 -64 350 -32 98 41 61 70 -92 71 -201 2 -304 25 -319 71 -6 21 -21 33 -32 26 -11 -6 -25 7 -31 30 -13 50 -66 57 -66 8z"/> <path d="M6253 1745 c-8 -13 -18 -108 -21 -210 -6 -178 -45 -355 -78 -355 -8 0 -3 -23 12 -52 24 -46 23 -61 -9 -124 -20 -40 -36 -91 -35 -113 2 -34 4 -35 12 -6 5 19 17 35 26 35 9 0 27 32 40 70 13 39 36 70 53 70 16 0 23 10 16 21 -7 12 -24 17 -38 12 -20 -7 -19 7 2 68 52 152 70 665 20 584z"/> <path d="M6103 1655 c-13 -25 -26 -74 -30 -109 -3 -35 -18 -78 -32 -95 -14 -17 -18 -31 -8 -31 9 0 16 -45 14 -100 -2 -55 4 -95 14 -90 9 6 16 26 16 45 0 19 5 62 11 95 33 166 54 330 42 330 -2 0 -14 -20 -27 -45z"/> <path d="M2580 1416 c0 -14 -13 -51 -29 -81 -18 -34 -21 -55 -7 -55 12 0 10 -14 -7 -35 -25 -32 -24 -33 9 -7 20 16 31 40 26 55 -11 26 11 35 65 28 15 -2 21 6 14 18 -7 11 -27 21 -45 21 -24 0 -26 6 -7 28 16 20 16 33 2 41 -12 8 -21 2 -21 -13z"/> <path d="M6629 1340 c10 -97 24 -122 61 -107 30 11 126 -36 217 -108 31 -25 71 -45 90 -44 51 0 -81 102 -193 147 -127 51 -144 67 -144 134 0 32 -9 58 -19 58 -11 0 -16 -36 -12 -80z"/> <path d="M5565 1335 c-105 -176 -129 -222 -101 -195 35 34 164 260 149 260 -5 0 -27 -29 -48 -65z"/> <path d="M3660 1251 c0 -49 9 -94 20 -101 13 -8 20 24 17 89 -4 124 -37 135 -37 12z"/> <path d="M5545 1155 c-61 -75 -103 -191 -75 -202 20 -8 36 13 54 73 13 46 37 94 53 106 19 14 22 26 8 35 -11 7 -29 1 -40 -12z"/> <path d="M5834 1074 c-7 -19 -25 -34 -39 -34 -14 0 -39 -16 -56 -36 -86 -104 -87 -107 -62 -122 23 -14 -33 -145 -77 -182 -47 -38 -100 -420 -59 -420 11 0 19 17 19 37 0 20 17 85 37 145 37 106 59 159 196 456 38 81 65 157 61 169 -4 12 -13 6 -20 -13z"/> <path d="M6406 1037 c8 -72 42 -148 87 -197 16 -16 44 -50 64 -73 38 -48 103 -53 130 -11 13 21 22 21 47 1 37 -31 86 -40 126 -24 70 30 102 27 96 -8 -4 -24 5 -33 29 -29 19 3 35 -4 35 -15 0 -12 16 -21 35 -21 30 -1 31 -3 5 -20 -28 -18 -26 -20 35 -20 8 0 15 7 15 15 2 83 51 60 232 -106 17 -16 39 -29 47 -29 29 0 93 -87 83 -113 -6 -14 6 -37 26 -51 20 -15 37 -33 38 -43 1 -26 24 -42 24 -16 0 12 9 23 19 23 21 0 133 -219 126 -244 -3 -8 10 -9 29 -2 25 10 30 5 20 -21 -11 -28 1 -33 77 -33 127 0 111 61 -95 380 -184 285 -356 403 -723 498 -130 34 -310 94 -400 134 -90 39 -175 76 -189 82 -19 8 -23 -7 -18 -57z"/> <path d="M3662 995 c7 -121 33 -166 36 -60 1 58 -7 105 -18 105 -11 0 -19 -20 -18 -45z"/> <path d="M6067 984 c-29 -19 -55 -104 -32 -104 19 0 72 100 60 111 -3 4 -16 1 -28 -7z"/> <path d="M6337 945 c-1 -30 -4 -77 -5 -105 -1 -30 -14 -50 -32 -50 -20 0 -30 -21 -30 -65 0 -36 -9 -65 -21 -65 -13 0 -21 -45 -21 -110 0 -60 3 -105 8 -100 5 5 26 0 45 -11 40 -21 75 9 37 32 -15 9 -18 48 -10 112 8 54 4 114 -7 135 -27 50 70 75 98 24 10 -17 24 -26 32 -18 7 7 6 25 -3 40 -21 32 -29 65 -42 161 -12 87 -45 101 -49 20z"/> <path d="M4133 815 c3 -233 4 -235 37 -235 39 0 47 -93 19 -230 -10 -54 -9 -57 17 -25 15 19 34 29 41 21 7 -7 13 2 13 20 0 27 9 29 48 15 26 -10 53 -13 60 -6 7 6 12 -3 12 -22 0 -36 32 -46 43 -13 4 12 27 9 58 -7 27 -14 61 -22 75 -18 14 5 40 -3 59 -18 23 -19 28 -20 18 -2 -10 15 -2 30 18 38 18 7 40 1 49 -14 14 -21 23 -22 48 -1 16 14 38 21 48 15 9 -6 59 1 110 17 91 27 94 27 133 -24 l41 -51 -8 67 c-7 57 -4 62 17 32 46 -62 71 -39 71 66 0 55 -4 100 -8 100 -5 0 -127 -14 -272 -31 -365 -42 -600 13 -600 142 0 13 -14 36 -31 50 -19 16 -29 55 -27 107 1 45 -7 105 -18 132 -16 38 -22 41 -23 14 0 -20 -10 -31 -21 -24 -12 7 -15 21 -9 31 6 11 4 19 -5 19 -9 0 -15 -74 -13 -165z"/> <path d="M5352 878 c-18 -43 -32 -97 -32 -118 0 -22 -8 -40 -18 -40 -24 0 -38 -84 -21 -131 11 -32 16 -26 29 30 35 158 82 180 87 41 3 -88 -1 -100 -37 -100 -22 0 -40 -13 -40 -30 0 -16 -9 -30 -20 -30 -11 0 -20 9 -20 20 0 11 -19 20 -42 20 -41 0 -41 -2 -10 -49 17 -27 32 -63 32 -79 0 -16 9 -35 20 -42 11 -7 14 1 8 19 -7 17 -2 31 10 31 12 0 22 -14 22 -31 0 -16 14 -36 32 -43 22 -8 29 -28 23 -64 -11 -63 8 -145 34 -143 22 1 23 54 3 181 -9 59 0 172 27 330 47 279 47 276 21 260 -11 -7 -20 -4 -20 7 0 59 -60 33 -88 -39z"/> <path d="M5918 805 c-18 -4 -43 -44 -57 -89 -14 -46 -38 -104 -55 -130 -17 -25 -23 -46 -13 -46 9 0 8 -7 -3 -15 -56 -41 -95 -185 -50 -185 11 0 20 22 20 48 0 34 14 51 49 60 37 9 55 33 72 97 13 47 37 118 53 158 35 84 30 111 -16 102z"/> <path d="M3462 703 c-2 -54 -9 -65 -35 -55 -27 11 -29 8 -7 -18 16 -19 17 -30 3 -30 -12 0 -17 -13 -10 -30 6 -16 23 -30 37 -30 15 0 31 -11 37 -25 6 -15 10 -11 11 10 1 19 -7 35 -18 35 -25 0 -26 74 -1 89 10 7 28 -4 39 -24 19 -32 21 -31 21 9 1 24 -11 51 -26 60 -15 9 -32 30 -38 46 -7 17 -13 0 -13 -37z"/> <path d="M6097 565 c-33 -82 -38 -149 -10 -140 12 5 26 34 30 67 3 32 14 67 25 77 24 25 23 51 -2 51 -12 0 -31 -25 -43 -55z"/> <path d="M3381 422 c-12 -23 -18 -51 -12 -60 6 -10 -3 -23 -19 -29 -17 -7 -30 -29 -30 -51 0 -21 -11 -42 -24 -47 -12 -4 -16 -18 -8 -31 19 -32 52 -31 52 1 0 14 22 66 48 116 30 56 43 102 33 118 -13 20 -22 16 -40 -17z"/> <path d="M2020 320 c-16 -18 -52 -58 -80 -89 -46 -50 -46 -55 -10 -47 22 5 38 19 35 32 -3 13 6 24 21 24 35 0 101 81 81 99 -9 8 -30 0 -47 -19z"/> <path d="M5125 272 c-12 -26 -16 -54 -9 -62 8 -7 15 -19 16 -27 21 -144 36 -183 71 -183 40 0 51 49 16 71 -11 7 -19 27 -17 46 6 50 -25 203 -41 203 -8 0 -24 -22 -36 -48z"/> <path d="M3752 175 c-8 -47 -19 -107 -26 -135 -9 -39 -6 -45 13 -27 23 21 56 247 36 247 -5 0 -16 -38 -23 -85z"/> <path d="M5693 182 c-7 -44 -8 -93 -1 -110 7 -18 2 -32 -10 -32 -12 0 -22 -9 -22 -20 0 -52 80 -18 82 35 1 30 4 89 7 130 6 102 -40 99 -56 -3z"/> <path d="M6480 201 c0 -32 9 -64 20 -71 11 -7 20 -36 20 -65 0 -28 6 -46 12 -39 19 18 -12 234 -33 234 -11 0 -19 -26 -19 -59z"/> <path d="M3591 165 c-7 -30 -18 -71 -23 -90 -6 -19 -1 -35 11 -35 11 0 21 23 21 51 0 29 9 69 21 90 12 23 13 39 2 39 -10 0 -25 -25 -32 -55z"/> <path d="M5980 153 c0 -63 4 -70 28 -49 21 19 22 36 7 66 -32 63 -35 61 -35 -17z"/> <path d="M4219 139 c-1 -27 -6 -69 -10 -94 -5 -25 0 -45 10 -45 30 0 50 139 24 165 -17 17 -23 10 -24 -26z"/> <path d="M1861 131 c-13 -16 -18 -40 -10 -53 9 -14 7 -19 -5 -12 -11 7 -37 -5 -56 -26 -35 -39 -35 -40 18 -40 31 0 49 9 42 20 -7 11 -4 20 6 20 17 0 48 102 35 115 -3 3 -16 -7 -30 -24z"/> <path d="M5380 86 c0 -16 18 -34 40 -40 22 -6 40 -19 40 -28 0 -10 8 -18 18 -18 10 0 16 16 15 35 -5 59 -113 108 -113 51z"/> </g> </svg> 